<?xml version="1.0" encoding="UTF-8" standalone="no"?>
<!-- Created with Inkscape (http://www.inkscape.org/) -->

<svg
   xmlns:dc="http://purl.org/dc/elements/1.1/"
   xmlns:cc="http://creativecommons.org/ns#"
   xmlns:rdf="http://www.w3.org/1999/02/22-rdf-syntax-ns#"
   xmlns:svg="http://www.w3.org/2000/svg"
   xmlns="http://www.w3.org/2000/svg"
   xmlns:xlink="http://www.w3.org/1999/xlink"
   version="1.1"
   width="690.2439"
   height="690.2439"
   id="svg2">
  <defs
     id="defs4">
    <linearGradient
       id="linearGradient3768">
      <stop
         id="stop3770"
         style="stop-color:#f44b00;stop-opacity:1"
         offset="0" />
      <stop
         id="stop3776"
         style="stop-color:#ff9262;stop-opacity:1"
         offset="1" />
    </linearGradient>
    <linearGradient
       x1="97.560974"
       y1="424.31342"
       x2="787.80487"
       y2="424.31342"
       id="linearGradient3774"
       xlink:href="#linearGradient3768"
       gradientUnits="userSpaceOnUse" />
    <linearGradient
       x1="97.560974"
       y1="424.31342"
       x2="787.80487"
       y2="424.31342"
       id="linearGradient3801"
       xlink:href="#linearGradient3768"
       gradientUnits="userSpaceOnUse" />
  </defs>
  <metadata
     id="metadata7">
    <rdf:RDF>
      <cc:Work
         rdf:about="">
        <dc:format>image/svg+xml</dc:format>
        <dc:type
           rdf:resource="http://purl.org/dc/dcmitype/StillImage" />
        <dc:title></dc:title>
      </cc:Work>
    </rdf:RDF>
  </metadata>
  <g
     transform="translate(-36.585364,-23.093909)"
     id="layer1">
    <g
       id="g3797">
      <path
         d="m 787.80487,424.31342 a 345.12195,345.12195 0 1 1 -690.243896,0 345.12195,345.12195 0 1 1 690.243896,0 z"
         transform="matrix(0,-1,1,0,-42.606103,810.89878)"
         id="path3766"
         style="fill:url(#linearGradient3801);fill-opacity:1" />
      <path
         d="m 463.11812,585.79787 c -8.68186,-1.34677 -17.03025,-4.20026 -26.25219,-8.97316 -31.21985,-16.15834 -66.91529,-52.23984 -99.98878,-101.07013 -16.48745,-24.34232 -32.24951,-51.99479 -45.68282,-80.14429 -1.55988,-3.26871 -3.34274,-7.0717 -3.96194,-8.4511 -0.61927,-1.37941 -1.19796,-2.50802 -1.28599,-2.50802 -0.22297,0 -6.17787,12.21094 -9.061,18.58026 -17.31947,38.26129 -27.33054,72.18943 -29.81736,101.05291 -0.39472,4.58179 -0.38868,15.84713 0.01,19.65916 2.92443,27.92479 16.56804,38.54377 41.45392,32.26437 11.62288,-2.93276 23.94831,-8.96393 39.29585,-19.22863 3.19031,-2.13372 6.21109,-4.02469 6.71289,-4.20215 0.5169,-0.18278 1.84744,-0.31838 3.07003,-0.31274 1.84617,0.009 2.35233,0.10408 3.50598,0.66242 3.77296,1.82599 5.84171,5.65535 5.20542,9.63532 -0.51267,3.20666 -1.67871,4.63683 -6.54899,8.03262 -16.3231,11.38118 -32.78468,19.46567 -46.85959,23.0132 -5.87642,1.48116 -9.44872,1.965 -15.4883,2.09765 -8.90444,0.19558 -14.71461,-0.89547 -21.32812,-4.00475 -16.01253,-7.52829 -25.3197,-24.01598 -27.20012,-48.18505 -0.32274,-4.14885 -0.32267,-14.61848 2.5e-4,-19.1468 2.4158,-33.88223 15.21323,-75.57625 37.00622,-120.56608 2.7723,-5.72327 8.17402,-16.38292 10.13831,-20.00693 l 0.6049,-1.11592 -2.16001,-5.4771 c -6.83092,-17.32097 -12.34789,-33.46527 -16.98742,-49.7102 -0.99796,-3.49431 -1.83322,-6.37497 -1.85618,-6.40134 -0.0983,-0.11336 -10.56483,2.21031 -15.84874,3.51853 -37.28637,9.23123 -64.18929,23.23671 -74.61628,38.84466 -5.22273,7.81783 -6.02964,15.85793 -2.43971,24.30775 4.58829,10.79938 17.72428,22.77417 36.05948,32.87173 7.67628,4.2275 8.15997,4.60275 9.42514,7.31214 0.5207,1.11505 0.61801,1.67094 0.62993,3.60043 0.0136,2.10323 -0.0468,2.40539 -0.76282,3.86114 -1.48418,3.01618 -4.27984,4.92916 -7.55649,5.1704 -2.30101,0.16935 -3.51479,-0.25738 -8.6863,-3.05399 -10.03418,-5.42635 -18.68624,-11.23294 -25.89465,-17.37834 -3.54958,-3.02617 -9.24942,-8.81569 -11.67492,-11.8588 -14.1955,-17.8092 -15.74878,-37.39599 -4.33488,-54.662 14.2016,-21.48302 47.39592,-38.45687 95.90506,-49.04081 3.19673,-0.69752 5.33435,-1.27471 5.33435,-1.44041 0,-0.15211 -0.43244,-2.34835 -0.96101,-4.88053 -6.00042,-28.74496 -7.76199,-54.4654 -5.13258,-74.94014 3.74452,-29.15787 17.03058,-47.65488 37.51922,-52.23483 19.50569,-4.36032 43.43463,4.53252 70.57665,26.22874 3.40446,2.7214 4.53203,3.91762 5.32474,5.64916 2.92123,6.38084 -2.65921,13.64015 -9.62905,12.52583 -2.11674,-0.33839 -3.09967,-0.86243 -6.00773,-3.20277 -17.25211,-13.88427 -32.45431,-21.90465 -45.02263,-23.75313 -3.65341,-0.53738 -9.30606,-0.36063 -12.02428,0.37581 -4.32583,1.17208 -8.79585,3.95884 -11.65331,7.26519 -10.95761,12.67876 -14.65583,38.21586 -10.51055,72.5778 1.01448,8.40964 3.30706,21.6797 5.06841,29.33675 l 0.48892,2.12563 0.87118,-0.12686 c 19.00628,-2.76714 34.81457,-4.3484 52.05682,-5.20717 2.96692,-0.14776 6.84792,-0.34213 8.62458,-0.43206 l 3.23025,-0.16332 4.40004,-5.51419 c 19.54184,-24.49046 39.1211,-45.297 58.78559,-62.4707 28.15736,-24.59063 54.81919,-40.05884 76.83857,-44.57882 6.80018,-1.39592 14.16006,-1.80501 19.70937,-1.0955 18.96649,2.42479 32.0525,14.43572 37.83948,34.73068 3.28706,11.52789 4.11168,26.46079 2.37927,43.08655 -0.92353,8.86296 -2.70758,19.14887 -3.68368,21.23874 -3.15074,6.7453 -12.84676,6.83609 -16.1381,0.15109 -1.11813,-2.27092 -1.16024,-4.03581 -0.22139,-9.28271 4.59107,-25.65959 3.59773,-45.49511 -2.91688,-58.24464 -6.57069,-12.85914 -19.21743,-16.82815 -37.56876,-11.79032 -15.40046,4.22764 -34.26011,15.00366 -54.18126,30.95787 -18.94123,15.16946 -38.93753,35.1733 -58.23503,58.25679 l -3.60757,4.31543 7.24638,0.16045 c 47.51047,1.0523 91.47794,6.60962 131.62177,16.63648 44.10793,11.01704 78.77102,26.4059 100.74605,44.72665 3.35799,2.79964 9.47519,8.96639 11.86224,11.95851 4.29802,5.38741 8.09903,12.04024 9.83644,17.21659 5.47345,16.30714 1.20719,32.4952 -12.22874,46.40147 -6.13728,6.35209 -13.02579,11.57126 -22.21922,16.83476 -7.8187,4.47636 -21.66167,10.74884 -25.14183,11.3922 -3.70815,0.68545 -7.75818,-1.44676 -9.51133,-5.00747 -0.72223,-1.46694 -0.78649,-1.78438 -0.78649,-3.88449 0,-2.09901 0.0643,-2.41811 0.78498,-3.88235 1.01575,-2.0643 2.81371,-3.72887 5.00978,-4.63787 8.77425,-3.63188 15.71932,-6.88993 20.57729,-9.65318 2.89265,-1.64536 8.5562,-5.38774 11.26122,-7.44116 3.21492,-2.44049 9.21535,-8.47738 11.11759,-11.18511 1.8843,-2.68215 3.66946,-6.28791 4.51156,-9.11264 0.57686,-1.93505 0.64478,-2.55362 0.65804,-5.99367 0.0167,-4.18167 -0.31186,-5.90328 -1.82701,-9.58909 -6.13786,-14.93092 -26.31208,-30.42209 -56.289,-43.22261 -41.79278,-17.84605 -98.10251,-29.41293 -158.95152,-32.65114 -12.87624,-0.68521 -39.11117,-1.23427 -41.53055,-0.8691 l -1.13332,0.17102 -3.56189,4.84098 c -14.01081,19.04227 -27.37406,39.58358 -39.14661,60.17413 -2.87518,5.02877 -3.50828,6.30045 -3.34639,6.72138 0.10986,0.28557 1.16826,2.73085 2.3521,5.43397 25.13738,57.39911 59.35396,111.34532 94.73593,149.36163 1.65671,1.78016 5.33324,5.5462 8.16997,8.36903 29.196,29.05277 55.99986,43.61558 73.96481,40.18586 4.86291,-0.92837 9.64185,-3.64531 12.90999,-7.33947 16.1084,-18.20852 16.38586,-64.55382 0.72835,-121.65014 -7.65928,-27.93002 -18.15607,-56.007 -32.22225,-86.18863 -2.04262,-4.38287 -3.15924,-7.07519 -3.33098,-8.03153 -0.69277,-3.85636 1.30861,-7.6769 5.04091,-9.62301 1.17152,-0.61077 1.5227,-0.67345 3.80784,-0.67941 2.27273,-0.008 2.6487,0.0579 3.86907,0.65742 2.94468,1.44652 3.56977,2.42041 8.6886,13.53617 24.00559,52.1292 39.19777,103.53012 42.92481,145.23081 1.28417,14.36819 1.09917,30.1057 -0.4805,40.87663 -4.28668,29.22832 -17.87385,47.13443 -38.76983,51.09335 -3.95901,0.75012 -12.08012,0.85624 -16.23215,0.21226 z M 290.62224,338.26033 c 6.97859,-11.86938 19.7626,-31.49628 27.89436,-42.82535 0.7907,-1.10153 1.40958,-2.03085 1.37543,-2.06509 -0.192,-0.192 -16.33534,1.09939 -24.76817,1.98137 -8.60743,0.90017 -21.04676,2.55323 -21.3278,2.83427 -0.2758,0.27581 3.90204,14.2592 7.32461,24.51603 2.19951,6.59127 6.52956,18.73501 6.8859,19.31163 0.20781,0.33626 0.23125,0.30266 2.61567,-3.75286 z m 87.58893,60.17421 c -8.59598,-1.61889 -15.98105,-7.33789 -19.75005,-15.29416 -1.72567,-3.64301 -2.29307,-6.10743 -2.43955,-10.59643 -0.0976,-2.99004 -0.0374,-4.30399 0.27453,-5.95863 2.85096,-15.1419 17.41424,-24.91854 32.50085,-21.81856 7.77565,1.59778 14.85187,6.88645 18.46731,13.80229 3.99625,7.64435 4.34855,16.11236 0.99374,23.88397 -2.54599,5.89794 -7.17306,10.70405 -13.1,13.60719 -3.94176,1.93076 -6.54559,2.54028 -11.27591,2.63949 -2.6445,0.0556 -4.40582,-0.027 -5.67092,-0.26516 z"
         id="path2996"
         style="fill:#ffffff;fill-opacity:1" />
    </g>
  </g>
</svg>
